HIERARCHY
ROOT Hips
{
  OFFSET 0.849866 78.6569 -0.536788
  CHANNELS 6 Xposition Yposition Zposition Zrotation Xrotation Yrotation
  JOINT Bip01_Pelvis
  {
    OFFSET 0 0 0
    CHANNELS 6 Xposition Yposition Zposition Zrotation Xrotation Yrotation
    JOINT BN_Tail_01
    {
      OFFSET -5.52397 -0.332285 0
      CHANNELS 6 Xposition Yposition Zposition Zrotation Xrotation Yrotation
      JOINT BN_Tail_02
      {
        OFFSET 6.48885 -2.032e-005 0
        CHANNELS 6 Xposition Yposition Zposition Zrotation Xrotation Yrotation
        JOINT BN_Tail_03
        {
          OFFSET 7.08759 1.016e-005 -0.00261112
          CHANNELS 6 Xposition Yposition Zposition Zrotation Xrotation Yrotation
          End Site
          {
            OFFSET 0 0 0
          }
        }
      }
    }
    JOINT Bip01_Spine
    {
      OFFSET 4.02227 0.398968 0
      CHANNELS 6 Xposition Yposition Zposition Zrotation Xrotation Yrotation
      JOINT BN_UpperArm_R_01
      {
        OFFSET 4.84413 -3.22857 -3.65581
        CHANNELS 6 Xposition Yposition Zposition Zrotation Xrotation Yrotation
        JOINT BN_Forearm_R_01
        {
          OFFSET 8.51614 0 0
          CHANNELS 6 Xposition Yposition Zposition Zrotation Xrotation Yrotation
          JOINT BN_hand_R_01
          {
            OFFSET 10.1924 0 0
            CHANNELS 6 Xposition Yposition Zposition Zrotation Xrotation Yrotation
            JOINT BN_Finger_R_02
            {
              OFFSET 14.5949 -1.43855 0.585079
              CHANNELS 6 Xposition Yposition Zposition Zrotation Xrotation Yrotation
              End Site
              {
                OFFSET 0 0 0
              }
            }
            JOINT BN_Finger_R_01
            {
              OFFSET 14.4623 0 0
              CHANNELS 6 Xposition Yposition Zposition Zrotation Xrotation Yrotation
              End Site
              {
                OFFSET 0 0 0
              }
            }
          }
        }
      }
      JOINT BN_UpperArm_L_01
      {
        OFFSET 4.84412 -3.22858 3.65557
        CHANNELS 6 Xposition Yposition Zposition Zrotation Xrotation Yrotation
        JOINT BN_Forearm_L_01
        {
          OFFSET 8.51611 0 0
          CHANNELS 6 Xposition Yposition Zposition Zrotation Xrotation Yrotation
          JOINT BN_hand_L_01
          {
            OFFSET 10.1924 0 0
            CHANNELS 6 Xposition Yposition Zposition Zrotation Xrotation Yrotation
            JOINT BN_Finger_L_01
            {
              OFFSET 14.4623 0 0
              CHANNELS 6 Xposition Yposition Zposition Zrotation Xrotation Yrotation
              End Site
              {
                OFFSET 0 0 0
              }
            }
            JOINT BN_Finger_L_02
            {
              OFFSET 14.5949 1.43855 0.585071
              CHANNELS 6 Xposition Yposition Zposition Zrotation Xrotation Yrotation
              End Site
              {
                OFFSET 0 0 0
              }
            }
          }
        }
      }
      JOINT Bip01_R_Thigh
      {
        OFFSET -4.03411 -0.254132 -3.45377
        CHANNELS 6 Xposition Yposition Zposition Zrotation Xrotation Yrotation
        JOINT Bip01_R_Calf
        {
          OFFSET 3.92618 0 0
          CHANNELS 6 Xposition Yposition Zposition Zrotation Xrotation Yrotation
          JOINT Bip01_R_HorseLink
          {
            OFFSET 6.12319 0 0
            CHANNELS 6 Xposition Yposition Zposition Zrotation Xrotation Yrotation
            JOINT Bip01_R_Foot
            {
              OFFSET 9.94776 0 0
              CHANNELS 6 Xposition Yposition Zposition Zrotation Xrotation Yrotation
              JOINT Bip01_R_Toe3
              {
                OFFSET 0.881252 -0.110953 0.0158496
                CHANNELS 6 Xposition Yposition Zposition Zrotation Xrotation Yrotation
                JOINT Bip01_R_Toe31
                {
                  OFFSET 2.32137 0 0
                  CHANNELS 6 Xposition Yposition Zposition Zrotation Xrotation Yrotation
                  JOINT Bip01_R_Toe32
                  {
                    OFFSET 1.63293 0 0
                    CHANNELS 6 Xposition Yposition Zposition Zrotation Xrotation Yrotation
                    JOINT Bip01_R_Toe3Nub
                    {
                      OFFSET 1.72131 0 0
                      CHANNELS 6 Xposition Yposition Zposition Zrotation Xrotation Yrotation
                      End Site
                      {
                        OFFSET 0 0 0
                      }
                    }
                  }
                }
              }
              JOINT Bip01_R_Toe2
              {
                OFFSET 0.994751 0.967285 -1.09428
                CHANNELS 6 Xposition Yposition Zposition Zrotation Xrotation Yrotation
                JOINT Bip01_R_Toe21
                {
                  OFFSET 2.20201 0 0
                  CHANNELS 6 Xposition Yposition Zposition Zrotation Xrotation Yrotation
                  JOINT Bip01_R_Toe22
                  {
                    OFFSET 1.84925 0 0
                    CHANNELS 6 Xposition Yposition Zposition Zrotation Xrotation Yrotation
                    JOINT Bip01_R_Toe2Nub
                    {
                      OFFSET 1.70976 0 0
                      CHANNELS 6 Xposition Yposition Zposition Zrotation Xrotation Yrotation
                      End Site
                      {
                        OFFSET 0 0 0
                      }
                    }
                  }
                }
              }
              JOINT Bip01_R_Toe1
              {
                OFFSET 1.3748 1.34027 -0.0712419
                CHANNELS 6 Xposition Yposition Zposition Zrotation Xrotation Yrotation
                JOINT Bip01_R_Toe11
                {
                  OFFSET 2.26122 0 0
                  CHANNELS 6 Xposition Yposition Zposition Zrotation Xrotation Yrotation
                  JOINT Bip01_R_Toe12
                  {
                    OFFSET 2.22215 0 0
                    CHANNELS 6 Xposition Yposition Zposition Zrotation Xrotation Yrotation
                    JOINT Bip01_R_Toe1Nub
                    {
                      OFFSET 1.61867 0 0
                      CHANNELS 6 Xposition Yposition Zposition Zrotation Xrotation Yrotation
                      End Site
                      {
                        OFFSET 0 0 0
                      }
                    }
                  }
                }
              }
              JOINT Bip01_R_Toe0
              {
                OFFSET 1.40695 0.687986 0.883783
                CHANNELS 6 Xposition Yposition Zposition Zrotation Xrotation Yrotation
                JOINT Bip01_R_Toe01
                {
                  OFFSET 2.26828 0 0
                  CHANNELS 6 Xposition Yposition Zposition Zrotation Xrotation Yrotation
                  JOINT Bip01_R_Toe02
                  {
                    OFFSET 2.09769 0 0
                    CHANNELS 6 Xposition Yposition Zposition Zrotation Xrotation Yrotation
                    JOINT Bip01_R_Toe0Nub
                    {
                      OFFSET 1.53753 0 0
                      CHANNELS 6 Xposition Yposition Zposition Zrotation Xrotation Yrotation
                      End Site
                      {
                        OFFSET 0 0 0
                      }
                    }
                  }
                }
              }
            }
          }
        }
      }
      JOINT Bip01_L_Thigh
      {
        OFFSET -4.03411 -0.254147 3.45377
        CHANNELS 6 Xposition Yposition Zposition Zrotation Xrotation Yrotation
        JOINT Bip01_L_Calf
        {
          OFFSET 3.92616 0 0
          CHANNELS 6 Xposition Yposition Zposition Zrotation Xrotation Yrotation
          JOINT Bip01_L_HorseLink
          {
            OFFSET 6.1232 0 0
            CHANNELS 6 Xposition Yposition Zposition Zrotation Xrotation Yrotation
            JOINT Bip01_L_Foot
            {
              OFFSET 9.94775 0 0
              CHANNELS 6 Xposition Yposition Zposition Zrotation Xrotation Yrotation
              JOINT Bip01_L_Toe3
              {
                OFFSET 0.881246 -0.110986 -0.0157582
                CHANNELS 6 Xposition Yposition Zposition Zrotation Xrotation Yrotation
                JOINT Bip01_L_Toe31
                {
                  OFFSET 2.32136 0 0
                  CHANNELS 6 Xposition Yposition Zposition Zrotation Xrotation Yrotation
                  JOINT Bip01_L_Toe32
                  {
                    OFFSET 1.63293 0 0
                    CHANNELS 6 Xposition Yposition Zposition Zrotation Xrotation Yrotation
                    JOINT Bip01_L_Toe3Nub
                    {
                      OFFSET 1.7213 0 0
                      CHANNELS 6 Xposition Yposition Zposition Zrotation Xrotation Yrotation
                      End Site
                      {
                        OFFSET 0 0 0
                      }
                    }
                  }
                }
              }
              JOINT Bip01_L_Toe2
              {
                OFFSET 0.994649 0.967162 1.09447
                CHANNELS 6 Xposition Yposition Zposition Zrotation Xrotation Yrotation
                JOINT Bip01_L_Toe21
                {
                  OFFSET 2.202 0 0
                  CHANNELS 6 Xposition Yposition Zposition Zrotation Xrotation Yrotation
                  JOINT Bip01_L_Toe22
                  {
                    OFFSET 1.84926 0 0
                    CHANNELS 6 Xposition Yposition Zposition Zrotation Xrotation Yrotation
                    JOINT Bip01_L_Toe2Nub
                    {
                      OFFSET 1.70976 0 0
                      CHANNELS 6 Xposition Yposition Zposition Zrotation Xrotation Yrotation
                      End Site
                      {
                        OFFSET 0 0 0
                      }
                    }
                  }
                }
              }
              JOINT Bip01_L_Toe1
              {
                OFFSET 1.37483 1.34021 0.0715086
                CHANNELS 6 Xposition Yposition Zposition Zrotation Xrotation Yrotation
                JOINT Bip01_L_Toe11
                {
                  OFFSET 2.26124 0 0
                  CHANNELS 6 Xposition Yposition Zposition Zrotation Xrotation Yrotation
                  JOINT Bip01_L_Toe12
                  {
                    OFFSET 2.22214 0 0
                    CHANNELS 6 Xposition Yposition Zposition Zrotation Xrotation Yrotation
                    JOINT Bip01_L_Toe1Nub
                    {
                      OFFSET 1.61867 0 0
                      CHANNELS 6 Xposition Yposition Zposition Zrotation Xrotation Yrotation
                      End Site
                      {
                        OFFSET 0 0 0
                      }
                    }
                  }
                }
              }
              JOINT Bip01_L_Toe0
              {
                OFFSET 1.40707 0.688009 -0.883564
                CHANNELS 6 Xposition Yposition Zposition Zrotation Xrotation Yrotation
                JOINT Bip01_L_Toe01
                {
                  OFFSET 2.26828 0 0
                  CHANNELS 6 Xposition Yposition Zposition Zrotation Xrotation Yrotation
                  JOINT Bip01_L_Toe02
                  {
                    OFFSET 2.0977 0 0
                    CHANNELS 6 Xposition Yposition Zposition Zrotation Xrotation Yrotation
                    JOINT Bip01_L_Toe0Nub
                    {
                      OFFSET 1.53752 0 0
                      CHANNELS 6 Xposition Yposition Zposition Zrotation Xrotation Yrotation
                      End Site
                      {
                        OFFSET 0 0 0
                      }
                    }
                  }
                }
              }
            }
          }
        }
      }
      JOINT Bip01_Spine1
      {
        OFFSET 4.90674 -0.00437896 0
        CHANNELS 6 Xposition Yposition Zposition Zrotation Xrotation Yrotation
        JOINT Bip01_Neck
        {
          OFFSET 5.56447 -1.28357 0
          CHANNELS 6 Xposition Yposition Zposition Zrotation Xrotation Yrotation
          JOINT Bip01_Neck1
          {
            OFFSET 2.79308 -0.00219964 0
            CHANNELS 6 Xposition Yposition Zposition Zrotation Xrotation Yrotation
            JOINT Bip01_Head
            {
              OFFSET 2.79272 0 0
              CHANNELS 6 Xposition Yposition Zposition Zrotation Xrotation Yrotation
              JOINT BN_Mouth_01
              {
                OFFSET 4.19089 0.0665938 0
                CHANNELS 6 Xposition Yposition Zposition Zrotation Xrotation Yrotation
                End Site
                {
                  OFFSET 0 0 0
                }
              }
              JOINT Bip01_HeadNub
              {
                OFFSET 6.95118 0 0
                CHANNELS 6 Xposition Yposition Zposition Zrotation Xrotation Yrotation
                End Site
                {
                  OFFSET 0 0 0
                }
              }
            }
          }
        }
      }
    }
  }
}
MOTION
Frames:	3
Frame Time:	0.0333333
0.849867 18.564 -0.442133 1.68992 -87.1657 74.9526 0 0 0 -89.9987 2.6477 -89.9989 -5.52396 -0.332283 2.22045e-016 -24.8805 0.00712585 179.967 6.48885 9.53675e-007 -5.96046e-008 6.42313 2.32117e-009 1.89774e-008 7.08759 3.97549e-012 -0.000528276 -52.3533 -0.0234992 0.0185925 4.03758 0.149636 2.54001e-006 -13.0899 -4.9534 4.03782 4.69315 -4.13286 -6.93515 -74.5269 -21.1363 92.7294 8.51612 0 -1.90735e-006 39.6039 -25.0959 -24.5209 10.1924 -1.79857e-013 -1.90735e-006 -31.4602 5.05018 38.0782 14.5949 -1.43854 0.585078 -55.1151 -1.99187 29.3117 14.4623 -1.77636e-014 -1.06581e-014 -4.68673 -4.52982 24.3196 4.72029 -3.28924 5.7227 102.213 -28.4959 -92.4462 8.51612 -2.4869e-014 3.55271e-015 -34.8658 17.65 -23.8582 10.1924 -1.90735e-006 -9.53673e-007 27.071 -4.47896 35.5889 14.4623 9.53676e-007 -4.76837e-007 15.1607 3.46919 26.0169 14.5949 1.4385 0.585109 69.2606 -3.70091 37.9286 -3.64075 -0.757517 -3.799 -68.6378 8.78024 -177.732 3.92617 0 -8.88179e-016 -37.8185 -2.54895e-005 5.15351e-006 6.1232 -8.88181e-016 2.38419e-007 113.028 -3.93538e-006 -9.11682e-006 9.94776 -1.06582e-014 -1.77636e-015 -84.4731 15.3013 -4.2355 0.881235 -0.110958 0.0158317 135.448 -4.14864 178.07 2.32136 -2.22047e-016 4.47035e-008 30.6585 0.00094748 0.00159809 1.63293 2.38422e-007 -2.98023e-008 -54.5976 6.07529e-006 8.1985e-006 1.72129 3.10869e-015 -1.49012e-008 -1.05516e-005 -8.67336e-008 1.00185e-005 0.994719 0.967275 -1.09431 55.7697 -19.8199 19.88 2.202 -1.77638e-015 -2.66453e-015 39.9397 -0.0244087 -0.0291501 1.84924 4.76845e-007 0 -29.0582 -0.00485659 0.00870604 1.70976 5.32917e-015 -1.77636e-015 1.3227e-007 -6.16902e-008 -3.24453e-008 1.37479 1.34027 -0.0712851 62.7975 1.45623 -2.27818 2.26122 -8.8819e-015 -5.21541e-008 26.4698 -0.0160967 -0.0323516 2.22212 -2.66458e-015 -2.98023e-007 -43.5071 -1.11939e-006 8.42805e-007 1.61867 -3.55278e-015 -1.19209e-007 -2.43757e-007 -9.1778e-007 1.02603e-005 1.40695 0.687993 0.883745 69.498 19.8956 -38.6576 2.26827 -3.55276e-015 4.76837e-007 29.1653 2.43668e-005 1.28736e-007 2.0977 5.32916e-015 -6.21724e-015 -55.023 -8.74828e-006 8.92423e-006 1.53753 -7.10559e-015 7.9936e-015 -8.237e-008 9.64485e-006 1.06703e-005 -4.12526 -1.35445 3.06604 -72.4511 3.01642 176.388 3.92617 8.8818e-016 8.88178e-016 -59.0359 -1.10316e-007 -1.37782e-007 6.1232 0 0 71.7018 -5.57023e-006 1.6387e-005 9.94775 -4.44092e-015 -4.44089e-016 -23.9694 -17.0019 4.16671 0.881238 -0.110963 -0.0158117 110.799 3.25272 -176.833 2.32137 -8.38227e-015 2.38419e-007 54.4402 4.61006e-006 -7.74573e-006 1.63293 2.98028e-008 1.33227e-015 -61.5261 1.71637e-006 2.57252e-006 1.72129 -1.19212e-007 -2.38419e-007 -179.96 -0.000329213 -8.23066e-005 0.994705 0.967279 1.09432 74.9866 9.48058 -25.9179 2.20201 8.88188e-016 -1.33227e-015 40.0409 7.83508e-006 7.73082e-006 1.84925 -2.38422e-007 8.88178e-016 -72.6411 -2.60709e-006 -2.46539e-006 1.70976 -4.76847e-007 8.88178e-016 -179.96 0.000208322 -7.62068e-006 1.3748 1.34026 0.0713003 72.3141 -0.81974 2.56561 2.26123 -1.11023e-015 3.57628e-007 31.1828 -2.10209e-006 5.20189e-007 2.22213 5.99528e-015 -1.19209e-007 -38.5073 9.3888e-006 7.09337e-006 1.61867 -1.33229e-015 2.38419e-007 179.96 0.000208911 -0.000101176 1.40698 0.687974 -0.88372 79.3748 -6.54412 31.2861 2.26828 -3.7748e-015 -5.96046e-008 26.1651 1.93542e-006 6.34662e-006 2.0977 -1.19211e-007 -1.19209e-007 -61.0221 -1.26834e-005 -7.45418e-006 1.53753 -1.77639e-015 7.74859e-007 179.96 0.000207783 -3.76681e-005 4.9056 -0.00427437 -0.00031242 -24.5996 9.0465 5.58818 5.56288 -1.28305 1.7834e-005 6.17805 -12.6333 9.23177 2.79231 -0.00218153 -2.23073e-008 -29.8193 -27.9642 0.37962 2.79273 4.4409e-015 -2.98023e-008 52.9142 13.7821 2.27145 4.19088 0.0665837 -1.21702e-007 -133.502 -0.058548 -179.975 6.95116 0 -7.10543e-015 -1.17075e-006 1.16107e-008 3.06464e-008 
0.849867 18.6715 -0.451091 6.03676 -87.8568 79.8518 0 0 0 -89.9988 2.61575 -89.9988 -5.52396 -0.332283 0 -22.8211 0.00827026 179.958 6.48885 9.53675e-007 -5.96046e-008 9.53043 1.10702e-009 1.84668e-008 7.08759 3.68594e-012 -0.000528276 -46.3433 -0.0253035 0.024653 4.0377 0.147692 2.54001e-006 -12.7868 -5.24374 3.69578 4.69558 -4.13327 -6.95343 -74.1901 -25.1905 83.36 8.51612 -5.32908e-015 -1.90735e-006 39.6314 -23.2222 -31.8845 10.1924 -1.3678e-013 -1.90735e-006 -31.0375 5.64884 28.6974 14.5949 -1.43854 0.585078 -54.4746 -2.41961 39.0925 14.4623 -3.55272e-015 0 -5.18572 -4.62896 34.1958 4.7196 -3.28885 5.69774 102.518 -32.8431 -105.379 8.51612 6.39489e-014 3.55271e-015 -37.7209 16.7467 -25.9687 10.1924 -1.90735e-006 -9.53674e-007 23.5375 -1.54635 25.8081 14.4623 9.53676e-007 -4.76837e-007 16.0139 3.78599 38.6359 14.5949 1.4385 0.585109 69.4722 -4.32146 51.2855 -3.66935 -0.717174 -3.7796 -70.275 8.44561 -177.158 3.92617 -1.77636e-015 -8.88179e-016 -39.9334 -2.56732e-005 4.19993e-006 6.1232 -8.88181e-015 2.38419e-007 113.829 -4.06848e-006 -9.06009e-006 9.94776 -5.3291e-015 -1.77636e-015 -80.3303 14.7953 -5.28368 0.881235 -0.110958 0.0158317 131.939 -4.10224 177.816 2.32136 1.11024e-015 4.47035e-008 35.7543 0.0180013 0.0250005 1.63293 2.38422e-007 -2.98023e-008 -54.5976 5.4584e-006 7.97149e-006 1.72129 -2.66459e-015 -1.49012e-008 -1.05516e-005 -8.67336e-008 1.00185e-005 0.994719 0.967275 -1.09431 61.4506 -17.5275 21.8499 2.202 -1.77638e-015 -8.88178e-016 42.8166 -0.000848229 -0.000913744 1.84924 4.76845e-007 3.55271e-015 -27.8273 -0.00626707 0.0118378 1.70976 8.88196e-015 1.77636e-015 1.32269e-007 -6.16902e-008 9.98536e-006 1.37479 1.34027 -0.0712851 68.5733 1.1944 -2.42301 2.26122 0 -5.21541e-008 28.7385 0.00285683 0.00518657 2.22212 -4.88506e-015 -2.98023e-007 -43.5071 -1.50126e-006 2.61723e-007 1.61867 1.77639e-015 -1.19209e-007 -2.43723e-007 -9.1778e-007 2.42436e-007 1.40695 0.687993 0.883745 74.0725 15.8561 -40.2189 2.26827 0 4.76837e-007 29.1653 2.18042e-005 -8.30265e-006 2.0977 5.32916e-015 1.77636e-015 -55.023 -3.77633e-006 1.43587e-006 1.53753 3.55279e-015 5.32907e-015 -8.23689e-008 9.64485e-006 1.65251e-006 -4.11231 -1.34858 3.08592 -74.2702 2.65025 177.544 3.92617 -8.8818e-016 -4.44089e-016 -59.5387 -9.17357e-008 -1.27318e-007 6.1232 0 8.88178e-016 70.614 -5.88128e-006 1.629e-005 9.94775 -3.99682e-015 8.88178e-016 -23.3572 -16.7881 4.18462 0.881238 -0.110963 -0.0158117 110.799 3.25265 -176.834 2.32137 2.77559e-015 2.38419e-007 54.4402 4.22842e-006 -7.99863e-006 1.63293 2.98028e-008 -4.44089e-016 -61.5261 -6.7076e-006 7.15545e-006 1.72129 -1.19212e-007 -2.38419e-007 -179.96 -0.000329213 -8.23066e-005 0.994705 0.967279 1.09432 74.9865 9.48059 -25.9179 2.20201 7.5496e-015 4.44089e-016 40.0409 7.84755e-006 7.73647e-006 1.84925 -2.38422e-007 -4.44089e-016 -72.6411 -2.62434e-006 -2.48288e-006 1.70976 -4.76847e-007 0 -179.96 0.000208322 -7.62067e-006 1.3748 1.34026 0.0713003 72.3142 -0.819739 2.56561 2.26123 -1.33228e-015 3.57628e-007 31.1828 -1.64848e-006 1.28497e-006 2.22213 6.88347e-015 -1.19209e-007 -38.5073 9.13928e-006 7.42581e-006 1.61867 -5.32916e-015 2.38419e-007 179.96 0.000208911 -0.000101176 1.40698 0.687974 -0.88372 79.3748 -6.54412 31.2861 2.26828 2.66456e-015 -5.96046e-008 26.1651 -2.32319e-006 -2.24571e-006 2.0977 -1.19211e-007 -1.19209e-007 -61.0221 -1.26659e-005 -7.45848e-006 1.53753 0 7.74859e-007 179.96 0.000207783 -3.76681e-005 4.9056 -0.00427437 -0.00031242 -24.9258 9.09268 5.65683 5.56288 -1.28305 1.78327e-005 4.94088 -12.3751 9.32045 2.79231 -0.00218153 -2.23099e-008 -30.4228 -28.6276 0.446333 2.79273 0 -2.98023e-008 53.8519 15.6858 2.44309 4.19088 0.0665837 -1.21685e-007 -130.978 -0.0522461 -179.976 6.95116 1.42109e-014 3.55271e-015 -1.17075e-006 1.16107e-008 3.06464e-008 
0.849867 18.7263 -0.459235 12.3498 -88.4526 86.7255 0 0 0 -89.9988 2.58452 -89.9988 -5.52396 -0.332283 0 -20.5414 0.00708008 179.96 6.48885 9.53675e-007 -5.96046e-008 12.4579 5.43038e-009 1.99152e-008 7.08759 3.41949e-012 -0.000528276 -40.0037 -0.0230118 0.0279936 4.03782 0.145781 2.54001e-006 -12.4632 -5.53879 3.31948 4.69797 -4.13367 -6.9714 -74.9153 -26.4865 69.5204 8.51612 3.55272e-015 -1.90735e-006 39.7094 -20.7048 -39.2193 10.1924 -8.26008e-014 -1.90735e-006 -30.157 6.32299 13.1099 14.5949 -1.43854 0.585078 -54.4592 -2.34677 47.7742 14.4623 0 -1.77636e-015 -5.64906 -4.82331 43.5607 4.719 -3.28856 5.67208 101.237 -34.4751 -124.025 8.51612 1.06582e-013 0 -41.1087 15.5746 -26.7799 10.1924 -1.90735e-006 -9.53674e-007 21.9841 2.82754 9.73065 14.4623 9.53676e-007 -4.76837e-007 15.5156 3.98119 50.9125 14.5949 1.4385 0.585109 69.7052 -4.61165 63.0779 -3.70123 -0.674372 -3.75572 -72.3639 8.03319 -176.523 3.92617 8.8818e-016 -8.88179e-016 -42.58 -2.58487e-005 3.00266e-006 6.1232 -2.66454e-015 2.38419e-007 114.089 -4.11934e-006 -9.04242e-006 9.94776 -3.55273e-015 -4.44089e-016 -75.3754 14.2126 -6.31758 0.881235 -0.110958 0.0158317 127.769 -3.9122 177.618 2.32136 -1.55433e-015 4.47035e-008 41.7659 0.00432866 0.00484582 1.63293 2.38422e-007 -2.98023e-008 -54.5976 4.45568e-006 7.77204e-006 1.72129 -1.3323e-015 -1.49012e-008 -1.05516e-005 -8.67336e-008 1.00185e-005 0.994719 0.967275 -1.09431 67.9629 -14.5824 23.8012 2.202 1.77638e-015 0 46.2849 -0.0264553 -0.025292 1.84924 4.76846e-007 -1.77636e-015 -26.4254 -0.00706004 0.0141707 1.70976 3.55279e-015 1.77636e-015 1.32269e-007 -6.16902e-008 9.98539e-006 1.37479 1.34027 -0.0712851 75.3971 0.864988 -2.55632 2.26122 -8.88191e-015 -5.21541e-008 31.448 -0.00902197 -0.0147737 2.22212 -2.33151e-015 -2.98023e-007 -43.5071 -1.49891e-006 -1.94683e-007 1.61866 3.55278e-015 -1.19209e-007 -2.43723e-007 -9.1778e-007 2.42409e-007 1.40695 0.687993 0.883745 79.2225 10.9298 -41.5553 2.26827 8.88191e-016 4.76837e-007 29.1653 2.61962e-005 1.09415e-006 2.0977 4.21892e-015 3.55271e-015 -55.023 -9.56744e-006 2.70658e-006 1.53753 0 8.88178e-016 -8.23689e-008 9.64485e-006 1.65248e-006 -4.09827 -1.34214 3.10723 -76.5108 2.22733 178.632 3.92617 -2.66454e-015 0 -60.894 -7.29583e-008 -1.14233e-007 6.1232 -3.55272e-015 1.77636e-015 70.0383 -6.04574e-006 1.62379e-005 9.94775 -1.15464e-014 -1.77636e-015 -22.8002 -16.6152 4.21625 0.881238 -0.110963 -0.0158117 110.799 3.25266 -176.834 2.32137 1.66535e-016 2.38419e-007 54.4402 1.21577e-005 -2.30954e-006 1.63293 2.98028e-008 0 -61.5261 7.90883e-007 3.10239e-006 1.72129 -1.19212e-007 -2.38419e-007 -179.96 -0.000329213 -8.23066e-005 0.994705 0.967279 1.09432 74.9865 9.48059 -25.9179 2.20201 8.88188e-016 -8.88178e-016 40.0409 1.6064e-006 2.99489e-007 1.84925 -2.38422e-007 0 -72.6411 -2.9192e-006 -2.41352e-006 1.70976 -4.76847e-007 4.44089e-016 -179.96 0.000208322 -7.62067e-006 1.3748 1.34026 0.0713003 72.3142 -0.819739 2.56561 2.26123 -6.66141e-016 3.57628e-007 31.1828 -2.1091e-006 5.38861e-007 2.22213 1.33229e-015 -1.19209e-007 -38.5073 9.07175e-006 7.53061e-006 1.61867 4.44097e-015 2.38419e-007 179.96 0.000208911 -0.000101176 1.40698 0.687974 -0.88372 79.3748 -6.54412 31.2861 2.26828 -2.22047e-015 -5.96046e-008 26.1651 -2.32363e-006 -2.17842e-006 2.0977 -1.19211e-007 -1.19209e-007 -61.0221 -4.26965e-006 -1.20928e-005 1.53753 -1.77639e-015 7.74859e-007 179.96 0.000207783 -3.76681e-005 4.9056 -0.00427437 -0.00031242 -25.2061 9.12614 5.66626 5.56288 -1.28305 1.78313e-005 3.52334 -12.0395 9.37046 2.79231 -0.00218153 -2.23128e-008 -31.1169 -29.162 0.420619 2.79273 7.10543e-015 -2.98023e-008 54.7368 17.4778 2.21357 4.19088 0.0665837 -1.21685e-007 -128.523 -0.046875 -179.977 6.95116 3.55272e-015 0 -1.17075e-006 1.16107e-008 3.06631e-008 
